<?xml version="1.0" standalone="no"?>
<!DOCTYPE svg PUBLIC "-//W3C//DTD SVG 20010904//EN"
 "http://www.w3.org/TR/2001/REC-SVG-20010904/DTD/svg10.dtd">
<svg version="1.0" xmlns="http://www.w3.org/2000/svg"
 width="1280.000000pt" height="909.000000pt" viewBox="0 0 1280.000000 909.000000"
 preserveAspectRatio="xMidYMid meet">
<metadata>
Created by potrace 1.15, written by Peter Selinger 2001-2017
</metadata>
<g transform="translate(0.000000,909.000000) scale(0.100000,-0.100000)"
fill="#000000" stroke="none">
<path d="M0 4545 l0 -4545 6400 0 6400 0 0 4545 0 4545 -6400 0 -6400 0 0
-4545z m12750 4468 c0 -97 -25 -235 -75 -418 -93 -342 -152 -502 -231 -622
-56 -83 -192 -222 -303 -307 -84 -64 -5609 -3991 -5702 -4053 l-37 -24 -158
113 c-88 63 -1387 987 -2889 2053 -1502 1067 -2757 1963 -2790 1990 -271 230
-461 691 -501 1213 l-7 92 6347 0 6346 0 0 -37z m-12660 -515 c135 -465 254
-643 610 -911 85 -64 3572 -2544 4485 -3190 264 -187 490 -349 503 -360 18
-17 20 -23 10 -33 -19 -18 -5611 -3916 -5625 -3921 -11 -4 -13 831 -13 4241 0
2335 2 4246 5 4246 2 0 14 -33 25 -72z m12658 -6303 l-3 -2126 -2828 1973
-2827 1973 27 22 c16 13 793 566 1728 1230 1709 1214 2434 1730 2795 1989 107
77 267 189 355 249 88 60 192 135 232 167 213 172 375 439 469 768 14 52 31
101 38 109 12 16 18 -2591 14 -6354z m-6683 1571 c149 -107 280 -198 292 -205
51 -26 70 -16 363 195 156 112 295 207 308 211 13 3 34 1 47 -5 12 -6 726
-502 1586 -1103 860 -601 2106 -1470 2769 -1932 663 -462 1215 -848 1228 -858
23 -17 -197 -18 -6255 -21 -3453 -2 -6279 -2 -6281 -2 -4 2 8 10 2943 2059
1364 952 2512 1754 2551 1782 98 70 125 84 154 77 14 -3 147 -92 295 -198z"/>
</g>
</svg>
