<?xml version="1.0" standalone="no"?>
<!DOCTYPE svg PUBLIC "-//W3C//DTD SVG 20010904//EN"
 "http://www.w3.org/TR/2001/REC-SVG-20010904/DTD/svg10.dtd">
<svg version="1.0" xmlns="http://www.w3.org/2000/svg"
 width="1200.000000pt" height="1200.000000pt" viewBox="0 0 1200.000000 1200.000000"
 preserveAspectRatio="xMidYMid meet">

<g transform="translate(0.000000,1200.000000) scale(0.100000,-0.100000)"
fill="#6b9dda" stroke="none">
<path d="M5660 10644 c-694 -49 -1298 -213 -1881 -510 -1336 -683 -2281 -1970
-2524 -3440 -48 -294 -59 -436 -59 -789 0 -354 11 -499 60 -790 315 -1886
1750 -3409 3611 -3835 371 -85 644 -114 1068 -114 354 0 499 11 790 60 1886
315 3409 1750 3835 3611 85 371 114 644 114 1068 0 354 -11 499 -60 790 -282
1687 -1456 3092 -3074 3678 -337 122 -725 210 -1110 252 -138 15 -646 28 -770
19z m1874 -2693 l1626 -1195 0 -1874 c0 -1357 -3 -1873 -11 -1870 -15 5 -2408
1832 -2408 1838 0 3 526 410 1169 905 643 495 1170 903 1170 907 0 4 -73 60
-162 125 -90 65 -808 591 -1596 1170 l-1434 1053 -96 -73 c-53 -41 -700 -527
-1437 -1082 -1389 -1045 -1593 -1202 -1578 -1215 4 -4 558 -395 1231 -870 672
-475 1222 -867 1222 -870 0 -6 -2364 -1771 -2542 -1898 -17 -13 -18 50 -18
1861 l0 1874 1608 1210 c884 666 1612 1208 1618 1204 7 -3 743 -543 1638
-1200z m-1286 108 c394 -64 711 -246 881 -505 118 -180 178 -432 152 -642 -35
-286 -214 -580 -446 -734 -115 -76 -175 -92 -340 -93 -129 0 -146 2 -216 28
-79 29 -148 79 -178 129 l-17 27 -35 -28 c-102 -84 -241 -132 -384 -132 -263
0 -457 149 -521 401 -13 50 -15 92 -11 185 17 359 195 658 478 800 203 103
454 94 604 -21 25 -19 47 -34 48 -34 2 0 9 25 16 55 l12 55 144 0 c111 0 143
-3 140 -12 -3 -7 -52 -209 -110 -448 -57 -239 -116 -478 -130 -529 -38 -144
-30 -218 30 -278 30 -30 38 -33 97 -33 120 0 260 88 369 233 81 107 142 235
170 353 18 81 21 114 16 227 -8 210 -58 335 -191 474 -162 171 -354 265 -631
308 -162 26 -438 17 -590 -19 -301 -71 -580 -299 -731 -598 -80 -160 -112
-343 -93 -533 42 -412 378 -759 841 -870 326 -77 643 -47 1020 98 l66 25 6
-21 c3 -12 6 -63 6 -114 l0 -92 -81 -31 c-537 -207 -1169 -152 -1614 141 -167
110 -336 309 -419 491 -135 297 -151 545 -55 843 85 266 270 509 514 675 305
207 750 289 1183 219z m1276 -3969 l1538 -1175 -1571 -3 c-864 -1 -2277 -1
-3140 0 l-1569 3 1590 1182 c996 741 1595 1180 1603 1175 7 -4 704 -536 1549
-1182z"/>
<path d="M5791 7318 c-111 -43 -251 -208 -325 -385 -55 -130 -69 -200 -64
-301 8 -136 56 -230 140 -273 178 -91 390 11 502 244 80 165 138 418 122 533
-17 128 -111 204 -251 203 -46 0 -88 -7 -124 -21z"/>
</g>
</svg>
