<?xml version="1.0" encoding="UTF-8" standalone="no"?>
<svg
   version="1.0"
   width="1280pt"
   height="1280pt"
   viewBox="0 0 1280 1280"
   preserveAspectRatio="xMidYMid"
   id="svg4"
   sodipodi:docname="envelope-variant-for-ico.svg"
   inkscape:version="1.3.2 (091e20e, 2023-11-25, custom)"
   xmlns:inkscape="http://www.inkscape.org/namespaces/inkscape"
   xmlns:sodipodi="http://sodipodi.sourceforge.net/DTD/sodipodi-0.dtd"
   xmlns="http://www.w3.org/2000/svg"
   xmlns:svg="http://www.w3.org/2000/svg">
  <defs
     id="defs4" />
  <sodipodi:namedview
     id="namedview4"
     pagecolor="#ffffff"
     bordercolor="#000000"
     borderopacity="0.25"
     inkscape:showpageshadow="2"
     inkscape:pageopacity="0.0"
     inkscape:pagecheckerboard="0"
     inkscape:deskcolor="#d1d1d1"
     inkscape:document-units="pt"
     inkscape:zoom="0.67207031"
     inkscape:cx="852.58936"
     inkscape:cy="853.33333"
     inkscape:window-width="2560"
     inkscape:window-height="1361"
     inkscape:window-x="-9"
     inkscape:window-y="-9"
     inkscape:window-maximized="1"
     inkscape:current-layer="svg4" />
  <metadata
     id="metadata1">
Created by potrace 1.15, written by Peter Selinger 2001-2017
</metadata>
  <g
     transform="matrix(0.1,0,0,-0.1,0,1074)"
     fill="#000000"
     stroke="none"
     id="g4"
     style="fill:#2553a6;fill-opacity:1">
    <path
       d="m 583,9015 c -95,-17 -164,-40 -245,-82 -72,-38 -233,-162 -233,-181 0,-6 1416,-984 3147,-2171 L 6400,4421 9548,6581 c 1731,1187 3147,2165 3147,2171 0,21 -169,149 -250,189 -44,21 -116,49 -160,62 l -80,22 -5775,2 c -4705,1 -5788,-1 -5847,-12 z"
       id="path1"
       style="fill:#2553a6;fill-opacity:1" />
    <path
       d="M 0,4471 V 569 l 23,18 c 13,10 987,876 2164,1926 l 2141,1907 -56,53 c -31,30 -984,899 -2117,1932 C 1022,7438 74,8303 48,8329 l -48,45 z"
       id="path2"
       style="fill:#2553a6;fill-opacity:1" />
    <path
       d="M 11715,7381 C 11120,6839 10147,5951 9552,5408 l -1081,-987 2162,-1926 2162,-1926 3,1950 c 1,1073 1,2828 0,3899 l -3,1949 z"
       id="path3"
       style="fill:#2553a6;fill-opacity:1" />
    <path
       d="M 2450,2119 C 1160,1062 104,194 102,190 98,180 292,92 390,60 437,45 521,25 575,16 667,1 1147,-1 6440,2 l 5765,3 80,22 c 44,13 116,41 160,62 82,40 250,168 250,189 0,11 -4681,3762 -4695,3762 -3,0 -363,-295 -800,-655 -437,-360 -797,-654 -800,-654 -3,0 -363,294 -800,654 -437,360 -797,655 -800,655 -3,0 -1061,-865 -2350,-1921 z"
       id="path4"
       style="fill:#2553a6;fill-opacity:1" />
  </g>
</svg>
