<?xml version="1.0" standalone="no"?>
<!DOCTYPE svg PUBLIC "-//W3C//DTD SVG 20010904//EN"
 "http://www.w3.org/TR/2001/REC-SVG-20010904/DTD/svg10.dtd">
<svg version="1.0" xmlns="http://www.w3.org/2000/svg"
 width="1280.000000pt" height="903.000000pt" viewBox="0 0 1280.000000 903.000000"
 preserveAspectRatio="xMidYMid meet">
<metadata>
Created by potrace 1.15, written by Peter Selinger 2001-2017
</metadata>
<g transform="translate(0.000000,903.000000) scale(0.100000,-0.100000)"
fill="#000000" stroke="none">
<path d="M583 9015 c-95 -17 -164 -40 -245 -82 -72 -38 -233 -162 -233 -181 0
-6 1416 -984 3147 -2171 l3148 -2160 3148 2160 c1731 1187 3147 2165 3147
2171 0 21 -169 149 -250 189 -44 21 -116 49 -160 62 l-80 22 -5775 2 c-4705 1
-5788 -1 -5847 -12z"/>
<path d="M0 4471 l0 -3902 23 18 c13 10 987 876 2164 1926 l2141 1907 -56 53
c-31 30 -984 899 -2117 1932 -1133 1033 -2081 1898 -2107 1924 l-48 45 0
-3903z"/>
<path d="M11715 7381 c-595 -542 -1568 -1430 -2163 -1973 l-1081 -987 2162
-1926 2162 -1926 3 1950 c1 1073 1 2828 0 3899 l-3 1949 -1080 -986z"/>
<path d="M2450 2119 c-1290 -1057 -2346 -1925 -2348 -1929 -4 -10 190 -98 288
-130 47 -15 131 -35 185 -44 92 -15 572 -17 5865 -14 l5765 3 80 22 c44 13
116 41 160 62 82 40 250 168 250 189 0 11 -4681 3762 -4695 3762 -3 0 -363
-295 -800 -655 -437 -360 -797 -654 -800 -654 -3 0 -363 294 -800 654 -437
360 -797 655 -800 655 -3 0 -1061 -865 -2350 -1921z"/>
</g>
</svg>
