<?xml version="1.0" encoding="UTF-8" standalone="no"?>
<svg
   version="1.0"
   width="120"
   height="78"
   viewBox="0 0 90 58.500002"
   preserveAspectRatio="xMidYMid"
   id="svg4"
   sodipodi:docname="envelope-for-ico.svg"
   inkscape:version="1.3.2 (091e20e, 2023-11-25, custom)"
   xmlns:inkscape="http://www.inkscape.org/namespaces/inkscape"
   xmlns:sodipodi="http://sodipodi.sourceforge.net/DTD/sodipodi-0.dtd"
   xmlns="http://www.w3.org/2000/svg"
   xmlns:svg="http://www.w3.org/2000/svg">
  <defs
     id="defs4" />
  <sodipodi:namedview
     id="namedview4"
     pagecolor="#ffffff"
     bordercolor="#000000"
     borderopacity="0.25"
     inkscape:showpageshadow="2"
     inkscape:pageopacity="0.0"
     inkscape:pagecheckerboard="0"
     inkscape:deskcolor="#d1d1d1"
     inkscape:document-units="pt"
     inkscape:zoom="5.3765625"
     inkscape:cx="152.32781"
     inkscape:cy="103.3188"
     inkscape:window-width="2560"
     inkscape:window-height="1361"
     inkscape:window-x="-9"
     inkscape:window-y="-9"
     inkscape:window-maximized="1"
     inkscape:current-layer="svg4" />
  <metadata
     id="metadata1">
Created by potrace 1.15, written by Peter Selinger 2001-2017
</metadata>
  <g
     transform="matrix(0.00783123,0,0,-0.0081437,-4.6788517,81.564213)"
     fill="#000000"
     stroke="none"
     id="g4">
    <path
       d="m 680,9996 c 8,-7 944,-706 2080,-1552 1136,-846 2411,-1796 2834,-2111 l 769,-573 31,23 c 17,13 1296,966 2841,2117 1546,1151 2814,2097 2819,2102 6,4 -2555,8 -5689,8 -4821,0 -5697,-2 -5685,-14 z"
       id="path1"
       style="fill:#2553a6;fill-opacity:1" />
    <path
       d="m 626,7018 c -4,-1366 -6,-2856 -4,-3311 l 3,-828 1146,1308 c 631,719 1421,1621 1757,2005 l 610,696 -1721,1283 C 1470,8876 681,9464 664,9477 l -32,23 z"
       id="path2"
       style="fill:#2553a6;fill-opacity:1" />
    <path
       d="m 12065,9482 c -11,-10 -789,-592 -1730,-1292 -940,-700 -1718,-1280 -1727,-1289 -16,-15 2,-39 290,-367 169,-193 955,-1090 1747,-1994 l 1440,-1643 3,1652 c 1,908 1,2394 0,3301 -3,1650 -3,1651 -23,1632 z"
       id="path3"
       style="fill:#2553a6;fill-opacity:1" />
    <path
       d="m 7335,5937.8709 c -533,-398 -974,-721 -980,-717 -5,3 -441,327 -967,719 -527,392 -962,713 -967,713 -5,0 -762,-858 -1681,-1907 l -1672,-1908 2652,-3 c 1458,-1 3841,-1 5295,0 l 2643,3 -1669,1905 c -919,1048 -1673,1908 -1677,1912 -4,3 -443,-319 -977,-717 z"
       id="path4"
       style="fill:#2553a6;fill-opacity:1" />
  </g>
</svg>
